<svg width="24" height="24" viewBox="0 0 24 24" fill="none" xmlns="http://www.w3.org/2000/svg">
<g id="fluent:cart-20-regular" clip-path="url(#clip0_301_15711)">
<path id="Vector" d="M0.00171371 0.856959C0.00171371 0.62968 0.0919958 0.411708 0.252699 0.250997C0.413402 0.0902863 0.631362 0 0.85863 0H1.60929C2.85524 0 3.57163 0.810683 3.98637 1.61965C4.26916 2.17325 4.4731 2.84853 4.64277 3.43469H22.2867C22.5515 3.43477 22.8127 3.49622 23.0498 3.61421C23.2868 3.73221 23.4934 3.90354 23.6531 4.11477C23.8128 4.32599 23.9215 4.57136 23.9704 4.83162C24.0194 5.09188 24.0074 5.35995 23.9354 5.6148L21.3715 14.6557C21.1675 15.373 20.7353 16.0042 20.1402 16.4536C19.5451 16.903 18.8198 17.1461 18.0741 17.146H9.36952C8.61762 17.1463 7.8865 16.8993 7.28879 16.4431C6.69108 15.9869 6.25995 15.3468 6.06183 14.6214L4.96154 10.5852C4.95524 10.5671 4.94952 10.5488 4.94441 10.5303L3.17745 4.53674L3.00606 3.95915C2.83468 3.36614 2.68386 2.84168 2.45764 2.4012C2.18514 1.86988 1.93492 1.71563 1.60757 1.71563H0.856916C0.629648 1.71563 0.411688 1.62535 0.250985 1.46463C0.0902817 1.30392 0 1.08595 0 0.858673L0.00171371 0.856959ZM6.59654 10.0676L7.71567 14.1741C7.81489 14.5366 8.03053 14.8565 8.32937 15.0844C8.62821 15.3124 8.99368 15.4357 9.36952 15.4355H18.0758C18.4485 15.4352 18.8108 15.3133 19.108 15.0885C19.4052 14.8636 19.621 14.5481 19.7228 14.1895L22.2867 5.14861H5.14835L6.59654 10.0658V10.0676ZM12.0037 21.4291C12.0037 22.111 11.7328 22.7649 11.2507 23.247C10.7686 23.7291 10.1147 24 9.43293 24C8.75113 24 8.09725 23.7291 7.61514 23.247C7.13303 22.7649 6.86218 22.111 6.86218 21.4291C6.86218 20.7473 7.13303 20.0934 7.61514 19.6112C8.09725 19.1291 8.75113 18.8582 9.43293 18.8582C10.1147 18.8582 10.7686 19.1291 11.2507 19.6112C11.7328 20.0934 12.0037 20.7473 12.0037 21.4291ZM10.2898 21.4291C10.2898 21.2018 10.1996 20.9839 10.0389 20.8232C9.87816 20.6624 9.6602 20.5722 9.43293 20.5722C9.20567 20.5722 8.9877 20.6624 8.827 20.8232C8.6663 20.9839 8.57602 21.2018 8.57602 21.4291C8.57602 21.6564 8.6663 21.8744 8.827 22.0351C8.9877 22.1958 9.20567 22.2861 9.43293 22.2861C9.6602 22.2861 9.87816 22.1958 10.0389 22.0351C10.1996 21.8744 10.2898 21.6564 10.2898 21.4291ZM20.5728 21.4291C20.5728 22.111 20.302 22.7649 19.8199 23.247C19.3378 23.7291 18.6839 24 18.0021 24C17.3203 24 16.6664 23.7291 16.1843 23.247C15.7022 22.7649 15.4313 22.111 15.4313 21.4291C15.4313 20.7473 15.7022 20.0934 16.1843 19.6112C16.6664 19.1291 17.3203 18.8582 18.0021 18.8582C18.6839 18.8582 19.3378 19.1291 19.8199 19.6112C20.302 20.0934 20.5728 20.7473 20.5728 21.4291ZM18.859 21.4291C18.859 21.2018 18.7687 20.9839 18.608 20.8232C18.4473 20.6624 18.2294 20.5722 18.0021 20.5722C17.7748 20.5722 17.5569 20.6624 17.3962 20.8232C17.2355 20.9839 17.1452 21.2018 17.1452 21.4291C17.1452 21.6564 17.2355 21.8744 17.3962 22.0351C17.5569 22.1958 17.7748 22.2861 18.0021 22.2861C18.2294 22.2861 18.4473 22.1958 18.608 22.0351C18.7687 21.8744 18.859 21.6564 18.859 21.4291Z" fill="#3E3E3E"/>
</g>
<defs>
<clipPath id="clip0_301_15711">
<rect width="24" height="24" fill="white"/>
</clipPath>
</defs>
</svg>
