<svg width="50" height="33" viewBox="0 0 50 33" fill="none" xmlns="http://www.w3.org/2000/svg">
<g id="MasterCard">
<rect id="Rectangle" y="0.563965" width="50" height="32" rx="3" fill="#FCF3EC"/>
<g id="Group">
<g id="Group_2">
<path id="Vector" d="M29.3635 24.4284H20.6143V8.70459H29.3635V24.4284Z" fill="#C1A090"/>
<g id="Group_3">
<path id="Vector_2" d="M21.1748 16.5654C21.1748 13.3758 22.6682 10.5345 24.9938 8.70352C23.2931 7.36459 21.1468 6.56543 18.8142 6.56543C13.2919 6.56543 8.81543 11.0425 8.81543 16.5654C8.81543 22.0883 13.2919 26.5654 18.8142 26.5654C21.1468 26.5654 23.2931 25.7663 24.9938 24.4273C22.6682 22.5963 21.1748 19.7551 21.1748 16.5654Z" fill="#C1A090"/>
</g>
<g id="Group_4">
<path id="Vector_3" d="M41.1634 16.5654C41.1634 22.0883 36.687 26.5654 31.1647 26.5654C28.832 26.5654 26.6857 25.7663 24.9844 24.4273C27.3107 22.5963 28.8041 19.7551 28.8041 16.5654C28.8041 13.3758 27.3107 10.5345 24.9844 8.70352C26.6857 7.36459 28.832 6.56543 31.1647 6.56543C36.687 6.56543 41.1634 11.0425 41.1634 16.5654Z" fill="#C1A090"/>
</g>
</g>
<g id="Group_5">
<path id="Vector_4" d="M16.3398 16.6286C16.3398 16.1918 16.6261 15.8329 17.0938 15.8329C17.5407 15.8329 17.8424 16.1763 17.8424 16.6286C17.8424 17.0808 17.5407 17.4242 17.0938 17.4242C16.6261 17.4242 16.3398 17.0654 16.3398 16.6286ZM18.3518 16.6286V15.386H17.8115V15.6877C17.6401 15.464 17.38 15.3235 17.0266 15.3235C16.3297 15.3235 15.7834 15.8698 15.7834 16.6286C15.7834 17.3879 16.3297 17.9336 17.0266 17.9336C17.38 17.9336 17.6401 17.7932 17.8115 17.5694V17.8711H18.3518V16.6286ZM36.6116 16.6286C36.6116 16.1918 36.8979 15.8329 37.3656 15.8329C37.8131 15.8329 38.1142 16.1763 38.1142 16.6286C38.1142 17.0808 37.8131 17.4242 37.3656 17.4242C36.8979 17.4242 36.6116 17.0654 36.6116 16.6286ZM38.6242 16.6286V14.388H38.0833V15.6877C37.9119 15.464 37.6518 15.3235 37.2983 15.3235C36.6015 15.3235 36.0552 15.8698 36.0552 16.6286C36.0552 17.3879 36.6015 17.9336 37.2983 17.9336C37.6518 17.9336 37.9119 17.7932 38.0833 17.5694V17.8711H38.6242V16.6286ZM25.0591 15.8073C25.4072 15.8073 25.631 16.0257 25.6881 16.4102H24.3986C24.4563 16.0513 24.6741 15.8073 25.0591 15.8073ZM25.0698 15.3235C24.3414 15.3235 23.832 15.8537 23.832 16.6286C23.832 17.4188 24.3622 17.9336 25.1061 17.9336C25.4804 17.9336 25.8232 17.8402 26.1249 17.5855L25.8601 17.185C25.6518 17.351 25.3864 17.445 25.1371 17.445C24.7889 17.445 24.4717 17.2838 24.3938 16.8362H26.2392C26.2445 16.769 26.2499 16.7012 26.2499 16.6286C26.2445 15.8537 25.7661 15.3235 25.0698 15.3235ZM31.5944 16.6286C31.5944 16.1918 31.8806 15.8329 32.3484 15.8329C32.7953 15.8329 33.097 16.1763 33.097 16.6286C33.097 17.0808 32.7953 17.4242 32.3484 17.4242C31.8806 17.4242 31.5944 17.0654 31.5944 16.6286ZM33.6064 16.6286V15.386H33.0661V15.6877C32.8941 15.464 32.6346 15.3235 32.2811 15.3235C31.5843 15.3235 31.038 15.8698 31.038 16.6286C31.038 17.3879 31.5843 17.9336 32.2811 17.9336C32.6346 17.9336 32.8941 17.7932 33.0661 17.5694V17.8711H33.6064V16.6286ZM28.5428 16.6286C28.5428 17.3825 29.0676 17.9336 29.8686 17.9336C30.2429 17.9336 30.4923 17.8503 30.7625 17.6372L30.503 17.2004C30.3001 17.3462 30.087 17.4242 29.8526 17.4242C29.4211 17.4188 29.1039 17.107 29.1039 16.6286C29.1039 16.1501 29.4211 15.8383 29.8526 15.8329C30.087 15.8329 30.3001 15.9109 30.503 16.0567L30.7625 15.6199C30.4923 15.4068 30.2429 15.3235 29.8686 15.3235C29.0676 15.3235 28.5428 15.8746 28.5428 16.6286ZM35.5095 15.3235C35.1977 15.3235 34.9948 15.4693 34.8543 15.6877V15.386H34.3187V17.8711H34.8597V16.478C34.8597 16.0668 35.0364 15.8383 35.3899 15.8383C35.4994 15.8383 35.6136 15.8537 35.7279 15.9008L35.8945 15.3914C35.7749 15.3443 35.619 15.3235 35.5095 15.3235ZM21.0244 15.5836C20.7643 15.4122 20.4061 15.3235 20.0109 15.3235C19.3813 15.3235 18.9761 15.6252 18.9761 16.1192C18.9761 16.5244 19.2778 16.7744 19.8336 16.8523L20.0889 16.8886C20.3853 16.9303 20.5251 17.0082 20.5251 17.1487C20.5251 17.3409 20.3275 17.4504 19.9586 17.4504C19.5843 17.4504 19.3141 17.3308 19.132 17.1903L18.8773 17.6111C19.1736 17.8295 19.548 17.9336 19.9532 17.9336C20.6709 17.9336 21.0869 17.5956 21.0869 17.1225C21.0869 16.6857 20.7596 16.4572 20.2186 16.3792L19.9639 16.3423C19.7301 16.3114 19.5426 16.265 19.5426 16.0983C19.5426 15.9162 19.7193 15.8073 20.0157 15.8073C20.3329 15.8073 20.64 15.9269 20.7905 16.0204L21.0244 15.5836ZM27.9965 15.3235C27.6846 15.3235 27.4817 15.4693 27.3419 15.6877V15.386H26.8063V17.8711H27.3466V16.478C27.3466 16.0668 27.5234 15.8383 27.8769 15.8383C27.9864 15.8383 28.1006 15.8537 28.2149 15.9008L28.3815 15.3914C28.2619 15.3443 28.106 15.3235 27.9965 15.3235ZM23.3851 15.386H22.5014V14.632H21.9551V15.386H21.4511V15.8799H21.9551V17.0136C21.9551 17.5902 22.1789 17.9336 22.818 17.9336C23.0525 17.9336 23.3226 17.861 23.494 17.7414L23.3381 17.2784C23.1768 17.3718 23.0001 17.4188 22.8596 17.4188C22.5895 17.4188 22.5014 17.2522 22.5014 17.0029V15.8799H23.3851V15.386ZM15.3056 17.8711V16.3114C15.3056 15.724 14.9312 15.3289 14.3278 15.3235C14.0106 15.3182 13.6833 15.417 13.4542 15.7657C13.2828 15.4901 13.0127 15.3235 12.633 15.3235C12.3676 15.3235 12.1081 15.4015 11.9052 15.6925V15.386H11.3643V17.8711H11.91V16.4935C11.91 16.062 12.1492 15.8329 12.5187 15.8329C12.8776 15.8329 13.0591 16.0668 13.0591 16.4881V17.8711H13.6054V16.4935C13.6054 16.062 13.8547 15.8329 14.2136 15.8329C14.5825 15.8329 14.7593 16.0668 14.7593 16.4881V17.8711H15.3056Z" fill="white"/>
</g>
</g>
</g>
</svg>
