<svg width="50" height="33" viewBox="0 0 50 33" fill="none" xmlns="http://www.w3.org/2000/svg">
<rect y="0.563965" width="50" height="32" rx="3" fill="#FCF3EC"/>
<g clip-path="url(#clip0_32_713)">
<path fill-rule="evenodd" clip-rule="evenodd" d="M39.8467 12.564H32.8242C33.2018 14.7783 35.4671 16.8497 37.9589 16.8497H43.5467C43.6222 16.6354 43.6222 16.3497 43.6222 16.1354C43.6222 14.1354 41.961 12.564 39.8467 12.564Z" fill="#C1A090"/>
<path fill-rule="evenodd" clip-rule="evenodd" d="M33.4287 17.207V22.5642H36.8267V19.707H39.8471C41.5083 19.707 42.943 18.6356 43.3961 17.207H33.4287Z" fill="#C1A090"/>
<path fill-rule="evenodd" clip-rule="evenodd" d="M21.3467 12.564V22.564H24.3671C24.3671 22.564 25.1222 22.564 25.4997 21.8497C27.5385 17.9925 28.1426 16.8497 28.1426 16.8497H28.5201V22.564H31.9181V12.564H28.8977C28.8977 12.564 28.1426 12.6354 27.765 13.2783C26.0283 16.564 25.1222 18.2783 25.1222 18.2783H24.7446V12.564H21.3467Z" fill="#C1A090"/>
<path fill-rule="evenodd" clip-rule="evenodd" d="M7 22.564V12.564H10.398C10.398 12.564 11.3796 12.564 11.9082 13.9925C13.2673 17.7783 13.4184 18.2783 13.4184 18.2783C13.4184 18.2783 13.7204 17.3497 14.9286 13.9925C15.4571 12.564 16.4388 12.564 16.4388 12.564H19.8367V22.564H16.4388V17.2068H16.0612L14.1735 22.564H12.6633L10.7755 17.2068H10.398V22.564H7Z" fill="#C1A090"/>
</g>
<defs>
<clipPath id="clip0_32_713">
<rect width="37" height="10" fill="white" transform="translate(7 12.564)"/>
</clipPath>
</defs>
</svg>
