<svg width="50" height="33" viewBox="0 0 50 33" fill="none" xmlns="http://www.w3.org/2000/svg">
<g id="Visa">
<rect id="Rectangle" y="0.563965" width="50" height="32" rx="3" fill="#FCF3EC"/>
<g id="Group">
<path id="polygon9" d="M22.4669 22.099H19.3887L21.314 11.0635H24.3921L22.4669 22.099Z" fill="#C1A090"/>
<path id="path11" d="M33.6256 11.3336C33.0184 11.1103 32.0554 10.8638 30.8646 10.8638C27.8247 10.8638 25.684 12.3664 25.6709 14.5147C25.6457 16.0997 27.2036 16.9801 28.3688 17.5086C29.5597 18.0486 29.9645 18.4011 29.9645 18.8825C29.9524 19.6218 29.0022 19.9625 28.1159 19.9625C26.8869 19.9625 26.2284 19.7869 25.2277 19.3755L24.8224 19.1992L24.3916 21.6764C25.1136 21.9813 26.4437 22.2519 27.8247 22.2638C31.0546 22.2638 33.1574 20.7844 33.1823 18.495C33.1946 17.2388 32.372 16.2762 30.5985 15.4896C29.5218 14.9847 28.8625 14.6442 28.8625 14.1276C28.8751 13.6579 29.4201 13.1768 30.6355 13.1768C31.6362 13.1533 32.3715 13.3763 32.9285 13.5994L33.2069 13.7166L33.6256 11.3336Z" fill="#C1A090"/>
<path id="path13" d="M37.7167 18.1895C37.9702 17.5555 38.9457 15.1018 38.9457 15.1018C38.9329 15.1254 39.1987 14.4562 39.3507 14.0453L39.5658 14.9962C39.5658 14.9962 40.1487 17.6377 40.2753 18.1895C39.7942 18.1895 38.3247 18.1895 37.7167 18.1895ZM41.5164 11.0635H39.1354C38.4011 11.0635 37.8433 11.2629 37.5265 11.9791L32.9541 22.0988H36.184C36.184 22.0988 36.7158 20.7368 36.8301 20.4434C37.1844 20.4434 40.3265 20.4434 40.7823 20.4434C40.8707 20.8309 41.1496 22.0988 41.1496 22.0988H43.9998L41.5164 11.0635Z" fill="#C1A090"/>
<path id="path15" d="M16.8168 11.0635L13.8021 18.5886L13.4727 17.0624C12.9154 15.3014 11.1674 13.3881 9.2168 12.4368L11.9781 22.0873H15.2333L20.0718 11.0635H16.8168Z" fill="#C1A090"/>
<path id="path17" d="M11.0033 11.0635H6.05067L6 11.2865C9.86336 12.2022 12.422 14.4097 13.4732 17.0629L12.3966 11.9911C12.2193 11.2863 11.6746 11.0867 11.0033 11.0635Z" fill="#C1A090"/>
</g>
</g>
</svg>
