<svg width="40" height="41" viewBox="0 0 40 41" fill="none" xmlns="http://www.w3.org/2000/svg">
<g id="twitter" clip-path="url(#clip0_11_1049)">
<circle id="Ellipse 79" cx="20" cy="20.564" r="20" fill="#FCF3EC"/>
<path id="Vector" d="M30.6667 13.4481C29.8331 13.8126 28.926 14.0749 27.9917 14.1771C28.9617 13.5929 29.6882 12.6699 30.0347 11.5814C29.1244 12.1303 28.1272 12.5153 27.0873 12.7191C26.6527 12.2481 26.127 11.8728 25.543 11.6168C24.9591 11.3607 24.3294 11.2293 23.6931 11.2307C21.1189 11.2307 19.0487 13.3459 19.0487 15.9416C19.0487 16.3061 19.0923 16.6706 19.1631 17.0213C15.3086 16.8169 11.8708 14.9502 9.58539 12.0923C9.16895 12.8133 8.95072 13.6343 8.95341 14.4698C8.95341 16.1045 9.77334 17.5459 11.0237 18.3936C10.2868 18.3642 9.56725 18.1589 8.92345 17.7944V17.8524C8.92345 20.1416 10.5197 22.0386 12.6472 22.4749C12.2477 22.5801 11.8368 22.6339 11.4241 22.6351C11.1217 22.6351 10.8357 22.6047 10.547 22.5633C11.1354 24.4299 12.8488 25.7857 14.8891 25.8299C13.2928 27.0974 11.2934 27.8429 9.1223 27.8429C8.73276 27.8429 8.37319 27.8291 8 27.785C10.0594 29.1242 12.5028 29.8974 15.1342 29.8974C23.6768 29.8974 28.3512 22.7234 28.3512 16.4966C28.3512 16.2923 28.3512 16.0879 28.3376 15.8836C29.242 15.2126 30.0347 14.3814 30.6667 13.4481Z" fill="#FF8E57"/>
</g>
<defs>
<clipPath id="clip0_11_1049">
<rect width="40" height="40" fill="white" transform="translate(0 0.563965)"/>
</clipPath>
</defs>
</svg>
