<svg width="40" height="41" viewBox="0 0 40 41" fill="none" xmlns="http://www.w3.org/2000/svg">
<g id="vk" clip-path="url(#clip0_11_1046)">
<circle id="Ellipse 79" cx="20" cy="20.564" r="20" fill="#FCF3EC"/>
<path id="Vector" d="M31.4268 14.4443C31.6015 13.9364 31.4268 13.564 30.6009 13.564H27.8649C27.1687 13.564 26.8506 13.8862 26.6759 14.2401C26.6759 14.2401 25.2849 17.2099 23.3136 19.1355C22.6774 19.6959 22.3867 19.8728 22.0398 19.8728C21.8664 19.8728 21.6144 19.6959 21.6144 19.188V14.4443C21.6144 13.8348 21.4135 13.564 20.8334 13.564H16.5342C16.1 13.564 15.838 13.8458 15.838 14.1145C15.838 14.6912 16.8236 14.8244 16.9247 16.4497V19.9755C16.9247 20.7477 16.7662 20.8886 16.4169 20.8886C15.4899 20.8886 13.2343 17.9079 11.8956 14.4957C11.6348 13.8327 11.3716 13.5651 10.6729 13.5651H7.9382C7.15595 13.5651 7 13.8873 7 14.2412C7 14.8769 7.92697 18.0225 11.318 22.1829C13.5786 25.0239 16.7612 26.564 19.6607 26.564C21.3986 26.564 21.6132 26.2221 21.6132 25.6323V23.4849C21.6132 22.8012 21.7791 22.6635 22.3293 22.6635C22.7335 22.6635 23.4297 22.8427 25.0528 24.2113C26.9067 25.8343 27.2136 26.5629 28.2554 26.5629H30.9901C31.7711 26.5629 32.1616 26.221 31.9371 25.546C31.6913 24.8742 30.8055 23.8967 29.6303 22.74C28.9915 22.0803 28.0371 21.3703 27.7464 21.0153C27.3409 20.5577 27.4582 20.3556 27.7464 19.9493C27.7476 19.9504 31.08 15.8413 31.4268 14.4443Z" fill="#FF8E57"/>
</g>
<defs>
<clipPath id="clip0_11_1046">
<rect width="40" height="40" fill="white" transform="translate(0 0.563965)"/>
</clipPath>
</defs>
</svg>
